<svg width="201" height="23" fill="none" xmlns="http://www.w3.org/2000/svg"><path fill-rule="evenodd" clip-rule="evenodd" d="M64.223 20.05c0 .422-.216.633-.65.633h-7.622a.638.638 0 01-.449-.158c-.115-.106-.173-.255-.173-.448 0-.165.04-.298.118-.4a.828.828 0 01.366-.247l.594-.18a.617.617 0 00.345-.261c.083-.129.124-.312.124-.551v-7.961a.53.53 0 00-.097-.324c-.064-.087-.184-.168-.359-.241l-.8-.262c-.212-.1-.364-.209-.456-.324a.65.65 0 01-.138-.42c0-.165.057-.3.172-.406l.045-.037a.712.712 0 01.432-.121h1.212l-.01-.08a1.112 1.112 0 00-.194-.464l-.47-.669a4.342 4.342 0 01-.47-.888c-.137-.344-.206-.769-.206-1.274 0-1.203.414-2.165 1.242-2.886C57.608 1.361 58.786 1 60.315 1c.985 0 1.802.156 2.451.468.649.313 1.135.728 1.457 1.247.322.519.483 1.086.483 1.701 0 .725-.19 1.27-.573 1.632-.382.363-.872.544-1.47.544-.663 0-1.197-.21-1.602-.633-.406-.423-.608-.983-.608-1.68V3.051c0-.321-.065-.558-.194-.709-.128-.152-.326-.227-.593-.227-.341 0-.599.114-.774.344-.175.23-.262.56-.262.992 0 .44.103.854.31 1.24.208.385.463.746.767 1.08.304.336.608.657.911.965.304.308.56.61.767.909l.059.09c.112.178.186.356.224.533l.012.073h2.046c.212 0 .375.043.49.13.115.088.173.223.173.407 0 .275-.12.5-.36.675-.239.174-.616.261-1.132.261h-.98v8.582c0 .257.039.454.117.592a.5.5 0 00.38.248l1.187.179c.212.027.369.094.47.2.101.105.152.25.152.434zm-27.191.316c-.829.395-1.796.593-2.9.593-1.17 0-2.217-.244-3.142-.73a5.382 5.382 0 01-2.189-2.115c-.534-.922-.801-2.045-.801-3.367 0-1.277.279-2.418.835-3.423a6.196 6.196 0 012.327-2.383c.995-.583 2.155-.875 3.48-.875 1.133 0 2.088.165 2.866.496.778.33 1.372.778 1.781 1.343.41.565.615 1.196.615 1.894 0 .735-.214 1.31-.642 1.729-.428.417-1.01.626-1.747.626-.755 0-1.328-.213-1.72-.64-.39-.427-.586-1.013-.586-1.756v-.882c0-.45-.083-.79-.249-1.02-.166-.229-.4-.344-.704-.344-.304 0-.578.122-.822.365-.244.244-.433.609-.566 1.095-.134.487-.2 1.089-.2 1.805 0 1.028.154 1.892.462 2.59.309.697.73 1.22 1.264 1.57a3.258 3.258 0 001.823.523c.681 0 1.252-.099 1.712-.296.46-.198.815-.53 1.063-.999.139-.128.247-.21.325-.248a.533.533 0 01.228-.055c.092.01.168.053.228.131.06.078.085.2.076.365-.074.9-.355 1.694-.843 2.383-.488.689-1.146 1.23-1.974 1.625zm14.037-.275c-1.036.56-2.24.84-3.611.84-1.335 0-2.507-.273-3.515-.82a5.943 5.943 0 01-2.354-2.265c-.562-.965-.843-2.08-.843-3.347 0-1.213.295-2.303.884-3.272.59-.969 1.404-1.738 2.444-2.307 1.04-.57 2.238-.854 3.591-.854 1.344 0 2.518.276 3.522.827a5.974 5.974 0 012.347 2.286c.562.973.843 2.098.843 3.375 0 1.212-.293 2.298-.877 3.257-.585.96-1.395 1.72-2.43 2.28zm-2.562-.592c-.285.055-.563-.07-.835-.372-.272-.303-.53-.813-.773-1.53-.244-.716-.477-1.657-.698-2.823-.212-1.166-.331-2.126-.359-2.879-.027-.753.028-1.322.166-1.708.138-.385.35-.61.635-.675.285-.055.564.07.836.372.271.303.531.813.78 1.53.248.716.483 1.657.704 2.823.221 1.166.343 2.128.366 2.886.023.757-.037 1.329-.18 1.714-.142.386-.356.607-.642.662zm24.706 1.184c.433 0 .65-.211.65-.633 0-.184-.052-.329-.153-.434-.101-.106-.258-.172-.47-.2l-1.187-.18a.5.5 0 01-.38-.247c-.078-.138-.117-.335-.117-.592V9.815h.98c.516 0 .893-.087 1.133-.261.24-.175.359-.4.359-.675 0-.184-.058-.32-.173-.407-.115-.087-.278-.13-.49-.13H71.32l-.013-.073a1.649 1.649 0 00-.224-.534l-.059-.089a6.938 6.938 0 00-.766-.91 31.004 31.004 0 01-.912-.963 5.44 5.44 0 01-.766-1.082 2.58 2.58 0 01-.31-1.24c0-.43.087-.761.261-.99.175-.23.433-.345.774-.345.267 0 .465.075.594.227.129.151.193.388.193.71v1.225c0 .698.203 1.258.608 1.68.405.423.939.634 1.602.634.598 0 1.088-.181 1.47-.544.382-.363.573-.907.573-1.632 0-.615-.16-1.182-.483-1.701-.322-.519-.808-.934-1.457-1.247C71.756 1.156 70.94 1 69.954 1c-1.528 0-2.707.36-3.535 1.081-.829.721-1.243 1.683-1.243 2.886 0 .505.069.93.207 1.274.138.344.294.64.47.888l.469.669c.103.148.168.302.194.463l.01.08h-1.212a.712.712 0 00-.431.122l-.046.037a.527.527 0 00-.172.406.65.65 0 00.138.42c.092.115.244.223.456.324l.8.262c.175.073.295.154.36.24a.53.53 0 01.096.325v7.961c0 .239-.041.422-.124.551a.617.617 0 01-.345.262l-.594.179a.827.827 0 00-.366.248.634.634 0 00-.117.4c0 .192.057.341.172.447a.638.638 0 00.449.158h7.623zm10.813-.4c-.893.45-1.924.676-3.093.676-1.29 0-2.422-.264-3.398-.792a5.736 5.736 0 01-2.285-2.218c-.548-.95-.822-2.05-.822-3.299 0-1.313.265-2.463.794-3.45a5.615 5.615 0 012.3-2.307c1.003-.551 2.21-.827 3.618-.827 1.197 0 2.228.232 3.093.696.866.463 1.53 1.092 1.996 1.887.465.794.697 1.678.697 2.651 0 .423-.115.756-.345.999l-.055.054c-.227.207-.54.31-.94.31h-6.312l.013.064c.168.757.454 1.362.858 1.817.691.776 1.612 1.164 2.762 1.164.737 0 1.388-.165 1.955-.496.566-.33.946-.79 1.139-1.377.11-.12.21-.2.297-.241a.549.549 0 01.228-.062.3.3 0 01.234.11c.065.073.097.197.097.372 0 .9-.249 1.724-.746 2.472-.497.749-1.192 1.348-2.085 1.798zm-4.897-6.723a10.58 10.58 0 01-.02-.66c0-.862.065-1.542.194-2.038.129-.496.295-.847.497-1.053.203-.207.428-.31.677-.31.322 0 .624.27.904.812.281.542.422 1.442.422 2.7 0 .386-.175.579-.525.579H79.13l-.002-.03zm18.1 6.724c-.894.45-1.925.675-3.094.675-1.29 0-2.422-.264-3.398-.792a5.735 5.735 0 01-2.285-2.218c-.548-.95-.822-2.05-.822-3.299 0-1.313.265-2.463.794-3.45a5.615 5.615 0 012.3-2.307c1.003-.551 2.21-.827 3.618-.827 1.197 0 2.228.232 3.093.696.866.463 1.53 1.092 1.996 1.887.465.794.697 1.678.697 2.651 0 .423-.115.756-.345.999l-.055.054c-.227.207-.54.31-.94.31h-6.312l.013.064c.168.757.454 1.362.859 1.817.69.776 1.61 1.164 2.761 1.164.737 0 1.388-.165 1.955-.496.566-.33.946-.79 1.139-1.377.11-.12.21-.2.297-.241a.549.549 0 01.228-.062.3.3 0 01.234.11c.065.073.097.197.097.372 0 .9-.248 1.724-.746 2.472-.497.749-1.192 1.348-2.085 1.798zm-4.897-6.724c-.014-.212-.02-.431-.02-.66 0-.862.064-1.542.193-2.038.13-.496.295-.847.497-1.053.203-.207.428-.31.677-.31.322 0 .624.27.904.812.281.542.422 1.442.422 2.7 0 .386-.175.579-.525.579h-2.147l-.001-.03zM109 20.51c-.115.115-.283.172-.504.172h-6.905c-.203 0-.361-.055-.476-.165-.116-.11-.173-.262-.173-.455 0-.147.034-.268.103-.365.07-.096.164-.186.284-.268l.317-.124a.462.462 0 00.249-.262c.046-.12.069-.317.069-.592v-6.998c0-.22-.025-.378-.076-.475a.522.522 0 00-.256-.227l-.359-.041a.882.882 0 01-.283-.234.526.526 0 01-.09-.317c0-.147.047-.278.139-.393.092-.115.248-.213.469-.296l3.922-1.116a4.26 4.26 0 01.58-.192c.157-.037.29-.056.401-.056.156 0 .273.056.352.166l.025.04c.064.115.109.299.134.552l.105 2.14.024-.079c.046-.149.098-.292.154-.429.336-.822.78-1.432 1.332-1.832.553-.4 1.156-.599 1.809-.599.792 0 1.4.262 1.823.785.424.524.635 1.318.635 2.383 0 1.056-.22 1.832-.662 2.328-.442.496-1.013.744-1.713.744-.681 0-1.185-.17-1.512-.51-.327-.34-.499-.822-.518-1.446l-.014-.551c-.009-.211-.05-.377-.124-.496-.074-.12-.193-.179-.359-.179-.166 0-.311.085-.435.255-.124.17-.219.43-.283.778a7.524 7.524 0 00-.097 1.336v4.849c0 .257.042.461.125.613a.544.544 0 00.386.282l1.036.207c.193.027.331.098.414.213.083.115.125.25.125.406a.605.605 0 01-.173.448zm11.041.42c1.372 0 2.575-.28 3.611-.84 1.036-.56 1.846-1.32 2.431-2.28.584-.96.876-2.045.876-3.257 0-1.277-.28-2.402-.842-3.375a5.974 5.974 0 00-2.348-2.286c-1.003-.551-2.177-.827-3.521-.827-1.353 0-2.55.285-3.591.854-1.04.57-1.855 1.338-2.444 2.307-.589.97-.884 2.06-.884 3.272 0 1.267.281 2.382.843 3.347a5.938 5.938 0 002.354 2.266c1.008.546 2.18.82 3.515.82zm.214-1.804c.271.303.55.427.835.372.286-.055.5-.276.642-.662.143-.385.203-.957.18-1.714-.023-.758-.145-1.72-.366-2.886-.221-1.166-.456-2.107-.704-2.824-.249-.716-.509-1.226-.781-1.529-.271-.303-.55-.427-.835-.372-.285.065-.497.29-.635.675-.138.386-.194.955-.166 1.708.028.753.147 1.713.359 2.88.221 1.165.453 2.106.697 2.823.244.716.502 1.226.774 1.529zm17.656 1.832c.773 0 1.408-.14 1.905-.42.497-.28.868-.613 1.112-1 .244-.385.366-.738.366-1.06a.617.617 0 00-.09-.344.276.276 0 00-.242-.138.266.266 0 00-.22.11c-.047.166-.118.28-.215.345a.548.548 0 01-.31.096c-.157 0-.274-.053-.352-.158a.684.684 0 01-.118-.42v-6.088c0-1.213-.416-2.152-1.25-2.817-.833-.666-2.138-.999-3.915-.999-1.381 0-2.534.17-3.459.51-.925.34-1.62.773-2.085 1.301-.465.528-.698 1.068-.698 1.619 0 .588.173 1.035.518 1.343.345.307.845.461 1.499.461.801 0 1.431-.213 1.892-.64.46-.427.69-.98.69-1.66V9.953c0-.257.081-.457.242-.599a.873.873 0 01.6-.213.75.75 0 01.615.282c.152.188.228.443.228.764l-.001 4.016-.073-.016a4.683 4.683 0 00-.771-.072l-.149-.002c-1.98 0-3.455.33-4.427.992-.971.66-1.456 1.584-1.456 2.768 0 .9.333 1.64 1.001 2.218.667.578 1.553.868 2.658.868.829 0 1.602-.168 2.32-.503a3.688 3.688 0 001.313-.99l.019-.024.02.061c.106.298.301.565.584.8l.087.07c.511.39 1.232.586 2.162.586zm-4.758-2.597c.226.299.523.448.891.448l.079-.003c.157-.01.309-.054.455-.129l.045-.025v-3.534l-.068-.021a2.187 2.187 0 00-.553-.062c-.359 0-.646.165-.863.496-.216.33-.324.817-.324 1.46 0 .615.113 1.072.338 1.37zM147.647 21c1.639 0 2.896-.372 3.77-1.116.875-.744 1.312-1.758 1.312-3.044 0-.78-.147-1.464-.442-2.052-.294-.588-.81-1.109-1.546-1.563-.737-.455-1.772-.884-3.107-1.288-.498-.156-.882-.315-1.154-.476-.271-.16-.458-.332-.559-.516a1.21 1.21 0 01-.152-.592.94.94 0 01.345-.758c.231-.193.571-.29 1.022-.29.626 0 1.218.207 1.775.62.557.414 1.171 1.12 1.844 2.122.174.211.349.365.524.461.175.097.341.127.497.09a.482.482 0 00.36-.379c.046-.197.036-.48-.028-.847l-.359-2.535c-.037-.266-.106-.454-.207-.564a.52.52 0 00-.401-.166c-.147 0-.331.05-.552.152-.221.101-.44.204-.656.31-.216.105-.38.158-.49.158-.102 0-.251-.055-.449-.165a4.49 4.49 0 00-.836-.33c-.359-.11-.824-.166-1.394-.166-.949 0-1.803.17-2.562.51-.76.34-1.358.824-1.795 1.453-.438.629-.656 1.38-.656 2.252 0 .771.163 1.446.49 2.025.327.578.826 1.074 1.498 1.487.672.414 1.519.749 2.541 1.006.663.174 1.172.351 1.526.53.355.18.599.374.732.586.134.21.2.445.2.702 0 .34-.115.62-.345.84-.23.22-.58.33-1.049.33-.442 0-.864-.093-1.264-.281-.401-.189-.812-.512-1.236-.972-.423-.459-.898-1.088-1.422-1.887a1.292 1.292 0 00-.532-.44.724.724 0 00-.601.013c-.193.074-.317.23-.373.469-.055.238-.041.532.042.881l.428 2.741c.064.276.156.46.276.551.12.092.249.138.387.138.156 0 .347-.05.573-.151l.677-.303c.225-.102.407-.152.545-.152.138 0 .32.05.545.152.226.1.521.201.884.303.364.1.822.151 1.374.151zm13.092-.517c-.608.317-1.326.476-2.154.476-1.4 0-2.452-.335-3.156-1.006-.704-.67-1.056-1.726-1.056-3.168V10.56c0-.193-.019-.34-.056-.44-.036-.102-.128-.184-.276-.248l-.649-.207c-.156-.074-.258-.163-.304-.269a.984.984 0 01-.069-.392.61.61 0 01.207-.475.74.74 0 01.511-.186h.677c.083 0 .17-.033.263-.097.092-.064.216-.193.372-.385l2.555-2.108c.184-.22.368-.388.553-.503.184-.114.368-.172.552-.172.212 0 .377.064.497.193l.038.046c.094.128.142.315.142.56l-.001 2.466h2.887c.202 0 .359.043.469.13.111.088.166.223.166.407 0 .257-.115.477-.345.66l-.052.039c-.232.158-.583.237-1.053.237h-2.072l.001 6.281c0 .69.117 1.199.352 1.53.235.33.577.495 1.029.495.193 0 .372-.041.538-.124.166-.082.315-.19.449-.323a3.75 3.75 0 00.38-.448c.119-.165.235-.33.345-.496a.208.208 0 01.242.048c.069.07.099.21.089.42-.064.744-.273 1.398-.628 1.963a3.67 3.67 0 01-1.443 1.322zm9.045.476c1.17 0 2.201-.225 3.094-.675.893-.45 1.588-1.05 2.085-1.798a4.376 4.376 0 00.746-2.472c0-.175-.033-.299-.097-.372a.3.3 0 00-.235-.11c-.064 0-.14.02-.228.062a1.045 1.045 0 00-.296.24c-.194.588-.574 1.047-1.14 1.378-.566.33-1.217.496-1.954.496-1.151 0-2.071-.388-2.762-1.164-.405-.455-.691-1.06-.858-1.817l-.014-.063h6.313c.4 0 .713-.104.94-.311l.055-.054c.23-.243.345-.576.345-.999 0-.973-.233-1.857-.698-2.651-.465-.795-1.13-1.424-1.995-1.887-.866-.464-1.897-.696-3.094-.696-1.408 0-2.614.276-3.618.827a5.615 5.615 0 00-2.299 2.307c-.529.987-.794 2.137-.794 3.45 0 1.249.274 2.349.822 3.299a5.728 5.728 0 002.285 2.218c.976.528 2.108.792 3.397.792zm-1.823-8.058c0 .228.007.447.02.659l.002.03h2.147c.349 0 .524-.193.524-.579 0-1.258-.14-2.158-.421-2.7-.281-.541-.582-.812-.904-.812-.249 0-.475.103-.677.31-.203.206-.368.557-.497 1.053-.129.496-.194 1.176-.194 2.039zm16.185 7.782c.221 0 .389-.057.504-.172a.601.601 0 00.173-.448.675.675 0 00-.124-.406c-.083-.115-.221-.186-.414-.213l-1.036-.207a.548.548 0 01-.387-.282c-.083-.152-.124-.356-.124-.613v-4.849c0-.542.032-.987.097-1.336.064-.349.158-.608.283-.778.124-.17.269-.255.435-.255.165 0 .285.06.359.179.073.12.115.285.124.496l.014.55c.018.625.191 1.107.518 1.447.326.34.831.51 1.512.51.699 0 1.27-.248 1.712-.744.442-.496.663-1.272.663-2.328 0-1.065-.212-1.86-.635-2.383-.424-.523-1.031-.785-1.823-.785-.654 0-1.257.2-1.809.6-.553.399-.997 1.01-1.333 1.831-.056.137-.107.28-.154.43l-.024.079-.105-2.141c-.024-.253-.069-.437-.134-.552l-.025-.04c-.078-.11-.195-.166-.352-.166-.11 0-.244.019-.4.056-.157.036-.35.1-.58.192l-3.922 1.116c-.221.083-.378.181-.47.296a.61.61 0 00-.138.393c0 .128.03.234.09.317.06.082.154.16.283.234l.359.041c.12.055.205.13.255.227.051.097.076.255.076.476v6.997c0 .275-.023.473-.069.592a.46.46 0 01-.248.262l-.318.124a1.147 1.147 0 00-.283.268.612.612 0 00-.103.365c0 .193.057.345.172.455.115.11.274.165.477.165h6.904zm14.542-.799c-.875.744-2.131 1.116-3.77 1.116-.552 0-1.01-.05-1.374-.151a6.443 6.443 0 01-.884-.303c-.225-.102-.407-.152-.545-.152-.138 0-.32.05-.546.152l-.677.303c-.225.1-.416.151-.573.151a.62.62 0 01-.386-.138c-.12-.092-.212-.275-.276-.55l-.429-2.742c-.082-.349-.096-.643-.041-.881.055-.239.18-.395.373-.469a.724.724 0 01.601-.013c.198.082.375.23.531.44.525.8.999 1.428 1.423 1.887.423.46.835.783 1.236.972.4.188.821.282 1.263.282.47 0 .82-.11 1.05-.33.23-.221.345-.501.345-.84 0-.258-.067-.492-.2-.703-.134-.212-.378-.407-.732-.586-.355-.179-.863-.356-1.526-.53-1.022-.257-1.869-.592-2.541-1.006-.672-.413-1.172-.909-1.498-1.487-.327-.579-.491-1.254-.491-2.025 0-.872.219-1.623.656-2.252.438-.63 1.036-1.113 1.795-1.453.76-.34 1.614-.51 2.562-.51.571 0 1.036.055 1.395.165.359.11.638.22.835.331.198.11.348.165.449.165.111 0 .274-.053.491-.158.216-.106.435-.209.655-.31.221-.101.406-.152.553-.152.166 0 .299.056.4.166.102.11.171.298.208.564l.359 2.535c.064.367.073.65.027.847a.482.482 0 01-.359.379c-.156.036-.322.007-.497-.09a1.894 1.894 0 01-.525-.461c-.672-1.001-1.286-1.708-1.843-2.121-.557-.414-1.149-.62-1.775-.62-.451 0-.792.096-1.022.289a.94.94 0 00-.345.758c0 .21.051.408.152.592s.288.356.559.516c.272.161.656.32 1.153.476 1.335.404 2.371.833 3.107 1.288.737.454 1.252.975 1.547 1.563.295.588.442 1.272.442 2.052 0 1.286-.437 2.3-1.312 3.044z" fill="#333D4B"/><path fill-rule="evenodd" clip-rule="evenodd" d="M12.803 4.502C9.728 1.576 5.17 1.155 2.642 3.565c-2.53 2.409-2.087 6.75.983 9.677a9.311 9.311 0 002.759 1.804c.327-1.809 1.264-3.547 2.687-4.975a20.89 20.89 0 00-1.459-.426c-2.984-.78-4.467-3.151-4.814-5.932.287.329.548.673.808 1.016.505.666 1.006 1.328 1.687 1.862 1.06.83 2.222 1.151 3.493 1.502l.148.04a6.427 6.427 0 011.607.7 10.189 10.189 0 014.156-1.704 8.81 8.81 0 00-1.894-2.627zm-5.2 11.24c.196-1.812 1.117-3.583 2.594-4.99 3.075-2.926 7.633-3.348 10.16-.937 2.53 2.409 2.089 6.75-.985 9.678-1.476 1.406-3.336 2.283-5.238 2.47a8.026 8.026 0 01-.75.037c-1.635 0-3.095-.546-4.172-1.571-1.239-1.179-1.811-2.844-1.609-4.688zm4.498 1.485c1.008-.732 2.099-1.022 3.285-1.33 2.985-.78 4.466-3.152 4.814-5.932-.284.326-.543.668-.801 1.009-.506.668-1.01 1.333-1.694 1.868-1.062.832-2.227 1.153-3.504 1.505l-.136.038c-2.92.807-4.364 3.159-4.698 5.895.288-.33.551-.67.813-1.01.57-.739 1.132-1.468 1.921-2.043z" fill="#0E8784"/></svg>